# xmcd
#
# Track frame offsets: 
#        150
#        16718
#        35033
#        52414
#        72477
#        86395
#        104204
#        121252
#        137940
#        154855
#        173041
#        189104
#
# Disc length: 2790 seconds
#
# Revision: 2
# Processed by: cddbd v1.5.2PL0 Copyright (c) Steve Scherf et al.
# Submitted via: ExactAudioCopyFreeDBPlugin 1.0
#
DISCID=a70ae40c
DTITLE=Lack of Afro - Music for Adverts
DYEAR=2014
DGENRE=Soul
TTITLE0=Freedom
TTITLE1=One for the Trouble
TTITLE2=Recipe for Love
TTITLE3=Coco
TTITLE4=Brown Sugar
TTITLE5=The Gypsy
TTITLE6=The Contender
TTITLE7=Missing Me
TTITLE8=No Guts No Glory
TTITLE9=Making it Right
TTITLE10=On the Road
TTITLE11=Here We Go Again
EXTD=
EXTT0=
EXTT1=
EXTT2=
EXTT3=
EXTT4=
EXTT5=
EXTT6=
EXTT7=
EXTT8=
EXTT9=
EXTT10=
EXTT11=
PLAYORDER=
